<?xml version="1.0" encoding="utf-8"?>
<svg version="1.1" xmlns:xlink="http://www.w3.org/1999/xlink" width="21px" height="17px" xmlns="http://www.w3.org/2000/svg">
  <g transform="matrix(1 0 0 1 -305 -22 )">
    <path d="M 20.740234375 13.85234375  C 20.9134114583333 14.0205729166667  21 14.2197916666667  21 14.45  L 21 16.15  C 21 16.3802083333333  20.9134114583333 16.5794270833333  20.740234375 16.74765625  C 20.5670572916667 16.9158854166667  20.3619791666667 17  20.125 17  L 0.875 17  C 0.638020833333333 17  0.432942708333333 16.9158854166667  0.259765625 16.74765625  C 0.0865885416666667 16.5794270833333  0 16.3802083333333  0 16.15  L 0 14.45  C 0 14.2197916666667  0.0865885416666667 14.0205729166667  0.259765625 13.85234375  C 0.432942708333333 13.6841145833333  0.638020833333333 13.6  0.875 13.6  L 20.125 13.6  C 20.3619791666667 13.6  20.5670572916667 13.6841145833333  20.740234375 13.85234375  Z M 20.740234375 7.05234375  C 20.9134114583333 7.22057291666667  21 7.41979166666667  21 7.65  L 21 9.35  C 21 9.58020833333333  20.9134114583333 9.77942708333333  20.740234375 9.94765625  C 20.5670572916667 10.1158854166667  20.3619791666667 10.2  20.125 10  L 0.875 10  C 0.638020833333333 10.2  0.432942708333333 10.1158854166667  0.259765625 9.94765625  C 0.0865885416666667 9.77942708333333  0 9.58020833333333  0 9.35  L 0 7.65  C 0 7.41979166666667  0.0865885416666667 7.22057291666667  0.259765625 7.05234375  C 0.432942708333333 6.88411458333333  0.638020833333333 6.8  0.875 7  L 20.125 7  C 20.3619791666667 6.8  20.5670572916667 6.88411458333333  20.740234375 7.05234375  Z M 20.740234375 0.252343750000001  C 20.9134114583333 0.420572916666665  21 0.619791666666665  21 0.850000000000001  L 21 2.55  C 21 2.78020833333333  20.9134114583333 2.97942708333333  20.740234375 3.14765625  C 20.5670572916667 3.31588541666666  20.3619791666667 3.4  20.125 3.4  L 0.875 3.4  C 0.638020833333333 3.4  0.432942708333333 3.31588541666666  0.259765625 3.14765625  C 0.0865885416666667 2.97942708333333  0 2.78020833333333  0 2.55  L 0 0.850000000000001  C 0 0.619791666666665  0.0865885416666667 0.420572916666665  0.259765625 0.252343750000001  C 0.432942708333333 0.0841145833333323  0.638020833333333 0  0.875 0  L 20.125 0  C 20.3619791666667 0  20.5670572916667 0.0841145833333323  20.740234375 0.252343750000001  Z " fill-rule="nonzero" fill="#ffffff" stroke="none" transform="matrix(1 0 0 1 305 22 )" />
  </g>
</svg>