<?xml version="1.0" encoding="utf-8"?>
<svg version="1.1" xmlns:xlink="http://www.w3.org/1999/xlink" width="26px" height="31px" xmlns="http://www.w3.org/2000/svg">
  <g transform="matrix(1 0 0 1 -1304 -14 )">
    <path d="M 25.82734375 22.4124348958333  C 25.9424479166667 23.4282769097222  26 24.5080295138889  26 25.6516927083333  C 26 27.1182725694444  25.5768229166667 28.3763020833333  24.73046875 29.42578125  C 23.8841145833333 30.4752604166667  22.8651041666667 31  21.6734375 31  L 4.3265625 31  C 3.13489583333333 31  2.11588541666667 30.4752604166667  1.26953125 29.42578125  C 0.423177083333333 28.3763020833333  0 27.1182725694444  0 25.6516927083333  C 0 24.5080295138889  0.0575520833333335 23.4282769097222  0.17265625 22.4124348958333  C 0.287760416666667 21.3965928819444  0.501041666666667 20.3740234375  0.8125 19.3447265625  C 1.12395833333333 18.3154296875  1.52005208333333 17.4341362847222  2.00078125 16.7008463541667  C 2.48151041666667 15.9675564236111  3.11796875 15.3688151041667  3.91015625 14.9046223958333  C 4.70234375 14.4404296875  5.61302083333333 14.2083333333333  6.6421875 14.2083333333333  C 8.41614583333333 15.9305555555556  10.5354166666667 16.7916666666667  13 16.7916666666667  C 15.4645833333333 16.7916666666667  17.5838541666667 15.9305555555556  19.3578125 14.2083333333333  C 20.3869791666667 14.2083333333333  21.29765625 14.4404296875  22.08984375 14.9046223958333  C 22.88203125 15.3688151041667  23.5184895833333 15.9675564236111  23.99921875 16.7008463541667  C 24.4799479166667 17.4341362847222  24.8760416666667 18.3154296875  25.1875 19.3447265625  C 25.4989583333333 20.3740234375  25.7122395833333 21.3965928819444  25.82734375 22.4124348958333  Z M 18.51484375 2.2705078125  C 20.03828125 3.7841796875  20.8 5.61067708333333  20.8 7.75  C 20.8 9.88932291666667  20.03828125 11.7158203125  18.51484375 13.2294921875  C 16.99140625 14.7431640625  15.153125 15.5  13 15.5  C 10.846875 15.5  9.00859375 14.7431640625  7.48515625 13.2294921875  C 5.96171875 11.7158203125  5.2 9.88932291666667  5.2 7.75  C 5.2 5.61067708333333  5.96171875 3.7841796875  7.48515625 2.2705078125  C 9.00859375 0.7568359375  10.846875 0  13 0  C 15.153125 0  16.99140625 0.7568359375  18.51484375 2.2705078125  Z " fill-rule="nonzero" fill="#ffffff" stroke="none" transform="matrix(1 0 0 1 1304 14 )" />
  </g>
</svg>