<?xml version="1.0" encoding="utf-8"?>
<svg version="1.1" xmlns:xlink="http://www.w3.org/1999/xlink" width="24px" height="24px" xmlns="http://www.w3.org/2000/svg">
  <g transform="matrix(1 0 0 1 -1197 -21 )">
    <path d="M 22.296875 8.703125  L 20.046875 6.453125  L 14.5 12  L 20.046875 17.546875  L 22.296875 15.296875  C 22.5989583333333 14.9739583333333  22.9635416666667 14.9010416666667  23.390625 15.078125  C 23.796875 15.2552083333333  24 15.5625  24 16  L 24 23  C 24 23.2708333333333  23.9010416666667 23.5052083333333  23.703125 23.703125  C 23.5052083333333 23.9010416666667  23.2708333333333 24  23 24  L 16 24  C 15.5625 24  15.2552083333333 23.7916666666667  15.078125 23.375  C 14.9010416666667 22.96875  14.9739583333333 22.609375  15.296875 22.296875  L 17.546875 20.046875  L 12 14.5  L 6.453125 20.046875  L 8.703125 22.296875  C 9.02604166666667 22.609375  9.09895833333333 22.96875  8.921875 23.375  C 8.74479166666667 23.7916666666667  8.4375 24  8 24  L 1 24  C 0.729166666666667 24  0.494791666666667 23.9010416666667  0.296875 23.703125  C 0.0989583333333333 23.5052083333333  0 23.2708333333333  0 23  L 0 16  C 0 15.5625  0.208333333333333 15.2552083333333  0.625 15.078125  C 1.03125 14.9010416666667  1.390625 14.9739583333333  1.703125 15.296875  L 3.953125 17.546875  L 9.5 12  L 3.953125 6.453125  L 1.703125 8.703125  C 1.50520833333333 8.90104166666666  1.27083333333333 9  1 9  C 0.875 9  0.75 8.97395833333333  0.625 8.921875  C 0.208333333333333 8.74479166666667  0 8.4375  0 8  L 0 0.999999999999999  C 0 0.729166666666663  0.0989583333333333 0.494791666666663  0.296875 0.296874999999999  C 0.494791666666667 0.0989583333333321  0.729166666666667 0  1 0  L 8 0  C 8.4375 0  8.74479166666667 0.208333333333331  8.921875 0.624999999999999  C 9.09895833333333 1.03125  9.02604166666667 1.390625  8.703125 1.703125  L 6.453125 3.953125  L 12 9.5  L 17.546875 3.953125  L 15.296875 1.703125  C 14.9739583333333 1.390625  14.9010416666667 1.03125  15.078125 0.624999999999999  C 15.2552083333333 0.208333333333331  15.5625 0  16 0  L 23 0  C 23.2708333333333 0  23.5052083333333 0.0989583333333321  23.703125 0.296874999999999  C 23.9010416666667 0.494791666666663  24 0.729166666666663  24 0.999999999999999  L 24 8  C 24 8.4375  23.796875 8.74479166666667  23.390625 8.921875  C 23.2552083333333 8.97395833333333  23.125 9  23 9  C 22.7291666666667 9  22.4947916666667 8.90104166666666  22.296875 8.703125  Z " fill-rule="nonzero" fill="#ffffff" stroke="none" transform="matrix(1 0 0 1 1197 21 )" />
  </g>
</svg>