<?xml version="1.0" encoding="utf-8"?>
<svg version="1.1" xmlns:xlink="http://www.w3.org/1999/xlink" width="34px" height="28px" xmlns="http://www.w3.org/2000/svg">
  <g transform="matrix(1 0 0 1 -269 -75 )">
    <path d="M 14.9158653846154 16.0284090909091  C 15.4334935897436 16.532196969697  15.6923076923077 17.1287878787879  15.6923076923077 17.8181818181818  L 15.6923076923077 25.4545454545455  C 15.6923076923077 26.1439393939394  15.4334935897436 26.7405303030303  14.9158653846154 27.2443181818182  C 14.3982371794872 27.7481060606061  13.7852564102564 28  13.0769230769231 28  L 2.61538461538462 28  C 1.90705128205128 28  1.29407051282051 27.7481060606061  0.776442307692308 27.2443181818182  C 0.258814102564103 26.7405303030303  0 26.1439393939394  0 25.4545454545455  L 0 17.8181818181818  C 0 17.1287878787879  0.258814102564103 16.532196969697  0.776442307692308 16.0284090909091  C 1.29407051282051 15.5246212121212  1.90705128205128 15.2727272727273  2.61538461538462 15  L 13.0769230769231 15  C 13.7852564102564 15.2727272727273  14.3982371794872 15.5246212121212  14.9158653846154 16.0284090909091  Z M 14.9158653846154 0.755681818181818  C 15.4334935897436 1.2594696969697  15.6923076923077 1.85606060606061  15.6923076923077 2.54545454545455  L 15.6923076923077 10.1818181818182  C 15.6923076923077 10.8712121212121  15.4334935897436 11.467803030303  14.9158653846154 11.9715909090909  C 14.3982371794872 12.4753787878788  13.7852564102564 12.7272727272727  13.0769230769231 13  L 2.61538461538462 13  C 1.90705128205128 12.7272727272727  1.29407051282051 12.4753787878788  0.776442307692308 11.9715909090909  C 0.258814102564103 11.467803030303  0 10.8712121212121  0 10.1818181818182  L 0 2.54545454545455  C 0 1.85606060606061  0.258814102564103 1.2594696969697  0.776442307692308 0.755681818181818  C 1.29407051282051 0.251893939393937  1.90705128205128 0  2.61538461538462 0  L 13.0769230769231 0  C 13.7852564102564 0  14.3982371794872 0.251893939393937  14.9158653846154 0.755681818181818  Z M 33.2235576923077 16.0284090909091  C 33.7411858974359 16.532196969697  34 17.1287878787879  34 17.8181818181818  L 34 25.4545454545455  C 34 26.1439393939394  33.7411858974359 26.7405303030303  33.2235576923077 27.2443181818182  C 32.7059294871795 27.7481060606061  32.0929487179487 28  31.3846153846154 28  L 20.9230769230769 28  C 20.2147435897436 28  19.6017628205128 27.7481060606061  19.0841346153846 27.2443181818182  C 18.5665064102564 26.7405303030303  18.3076923076923 26.1439393939394  18.3076923076923 25.4545454545455  L 18.3076923076923 17.8181818181818  C 18.3076923076923 17.1287878787879  18.5665064102564 16.532196969697  19.0841346153846 16.0284090909091  C 19.6017628205128 15.5246212121212  20.2147435897436 15.2727272727273  20.9230769230769 15  L 31.3846153846154 15  C 32.0929487179487 15.2727272727273  32.7059294871795 15.5246212121212  33.2235576923077 16.0284090909091  Z M 33.2235576923077 0.755681818181818  C 33.7411858974359 1.2594696969697  34 1.85606060606061  34 2.54545454545455  L 34 10.1818181818182  C 34 10.8712121212121  33.7411858974359 11.467803030303  33.2235576923077 11.9715909090909  C 32.7059294871795 12.4753787878788  32.0929487179487 12.7272727272727  31.3846153846154 13  L 20.9230769230769 13  C 20.2147435897436 12.7272727272727  19.6017628205128 12.4753787878788  19.0841346153846 11.9715909090909  C 18.5665064102564 11.467803030303  18.3076923076923 10.8712121212121  18.3076923076923 10.1818181818182  L 18.3076923076923 2.54545454545455  C 18.3076923076923 1.85606060606061  18.5665064102564 1.2594696969697  19.0841346153846 0.755681818181818  C 19.6017628205128 0.251893939393937  20.2147435897436 0  20.9230769230769 0  L 31.3846153846154 0  C 32.0929487179487 0  32.7059294871795 0.251893939393937  33.2235576923077 0.755681818181818  Z " fill-rule="nonzero" fill="#7f7f7f" stroke="none" transform="matrix(1 0 0 1 269 75 )" />
  </g>
</svg>