<?xml version="1.0" encoding="utf-8"?>
<svg version="1.1" xmlns:xlink="http://www.w3.org/1999/xlink" width="12px" height="12px" xmlns="http://www.w3.org/2000/svg">
  <g transform="matrix(1 0 0 1 -28 -95 )">
    <path d="M 34 95  C 37.36 95  40 97.64  40 101  C 40 104.36  37.36 107  34 107  C 30.64 107  28 104.36  28 101  C 28 97.64  30.64 95  34 95  Z " fill-rule="nonzero" fill="#ffffff" stroke="none" />
    <path d="M 34 95.5  C 37.08 95.5  39.5 97.92  39.5 101  C 39.5 104.08  37.08 106.5  34 106.5  C 30.92 106.5  28.5 104.08  28.5 101  C 28.5 97.92  30.92 95.5  34 95.5  Z " stroke-width="1" stroke="#cbd4e1" fill="none" />
  </g>
</svg>