<?xml version="1.0" encoding="utf-8"?>
<svg version="1.1" xmlns:xlink="http://www.w3.org/1999/xlink" width="65px" height="40px" xmlns="http://www.w3.org/2000/svg">
  <defs>
    <mask fill="white" id="clip176">
      <path d="M 0 36  L 0 4  C 0 1.75999999999999  1.75999999999999 0  4 0  L 34.4255319148938 0  L 61 0  C 63.24 0  65 1.75999999999999  65 4  L 65 36  C 65 38.24  63.24 40  61 40  L 4 40  C 1.75999999999999 40  0 38.24  0 36  Z " fill-rule="evenodd" />
    </mask>
  </defs>
  <g transform="matrix(1 0 0 1 -1075 -886 )">
    <path d="M 0 36  L 0 4  C 0 1.75999999999999  1.75999999999999 0  4 0  L 34.4255319148938 0  L 61 0  C 63.24 0  65 1.75999999999999  65 4  L 65 36  C 65 38.24  63.24 40  61 40  L 4 40  C 1.75999999999999 40  0 38.24  0 36  Z " fill-rule="nonzero" fill="#ffffff" stroke="none" transform="matrix(1 0 0 1 1075 886 )" />
    <path d="M 0 36  L 0 4  C 0 1.75999999999999  1.75999999999999 0  4 0  L 34.4255319148938 0  L 61 0  C 63.24 0  65 1.75999999999999  65 4  L 65 36  C 65 38.24  63.24 40  61 40  L 4 40  C 1.75999999999999 40  0 38.24  0 36  Z " stroke-width="2" stroke="#e9e9e9" fill="none" transform="matrix(1 0 0 1 1075 886 )" mask="url(#clip176)" />
  </g>
</svg>