<?xml version="1.0" encoding="utf-8"?>
<svg version="1.1" xmlns:xlink="http://www.w3.org/1999/xlink" width="18px" height="18px" xmlns="http://www.w3.org/2000/svg">
  <g transform="matrix(1 0 0 1 -473 -289 )">
    <path d="M 1.38461538461538 13.8214285714286  L 1.38461538461538 16.7142857142857  L 4.5 16.7142857142857  L 4.5 13.8214285714286  L 1.38461538461538 13.8214285714286  Z M 5.19230769230769 13.8214285714286  L 5.19230769230769 16.7142857142857  L 8.65384615384615 16.7142857142857  L 8.65384615384615 13.8214285714286  L 5.19230769230769 13.8214285714286  Z M 1.38461538461538 9.96428571428572  L 1.38461538461538 13.1785714285714  L 4.5 13.1785714285714  L 4.5 9.96428571428572  L 1.38461538461538 9.96428571428572  Z M 5.19230769230769 9.96428571428572  L 5.19230769230769 13.1785714285714  L 8.65384615384615 13.1785714285714  L 8.65384615384615 9.96428571428572  L 5.19230769230769 9.96428571428572  Z M 1.38461538461538 6.42857142857143  L 1.38461538461538 9.32142857142857  L 4.5 9.32142857142857  L 4.5 6.42857142857143  L 1.38461538461538 6.42857142857143  Z M 9.34615384615385 13.8214285714286  L 9.34615384615385 16.7142857142857  L 12.8076923076923 16.7142857142857  L 12.8076923076923 13.8214285714286  L 9.34615384615385 13.8214285714286  Z M 5.19230769230769 6.42857142857143  L 5.19230769230769 9.32142857142857  L 8.65384615384615 9.32142857142857  L 8.65384615384615 6.42857142857143  L 5.19230769230769 6.42857142857143  Z M 13.5 13.8214285714286  L 13.5 16.7142857142857  L 16.6153846153846 16.7142857142857  L 16.6153846153846 13.8214285714286  L 13.5 13.8214285714286  Z M 9.34615384615385 9.96428571428572  L 9.34615384615385 13.1785714285714  L 12.8076923076923 13.1785714285714  L 12.8076923076923 9.96428571428572  L 9.34615384615385 9.96428571428572  Z M 5.43569711538461 4.72600446428572  C 5.50420673076923 4.66238839285714  5.53846153846154 4.58705357142857  5.53846153846154 4.5  L 5.53846153846154 1.60714285714286  C 5.53846153846154 1.52008928571429  5.50420673076923 1.44475446428571  5.43569711538461 1.38113839285714  C 5.3671875 1.31752232142857  5.28605769230769 1.28571428571429  5.19230769230769 1.28571428571429  L 4.5 1.28571428571429  C 4.40625 1.28571428571429  4.32512019230769 1.31752232142857  4.25661057692308 1.38113839285714  C 4.18810096153846 1.44475446428571  4.15384615384615 1.52008928571429  4.15384615384615 1.60714285714286  L 4.15384615384615 4.5  C 4.15384615384615 4.58705357142857  4.18810096153846 4.66238839285714  4.25661057692308 4.72600446428572  C 4.32512019230769 4.78962053571429  4.40625 4.82142857142857  4.5 4.82142857142857  L 5.19230769230769 4.82142857142857  C 5.28605769230769 4.82142857142857  5.3671875 4.78962053571429  5.43569711538461 4.72600446428572  Z M 13.5 9.96428571428572  L 13.5 13.1785714285714  L 16.6153846153846 13.1785714285714  L 16.6153846153846 9.96428571428572  L 13.5 9.96428571428572  Z M 9.34615384615385 6.42857142857143  L 9.34615384615385 9.32142857142857  L 12.8076923076923 9.32142857142857  L 12.8076923076923 6.42857142857143  L 9.34615384615385 6.42857142857143  Z M 13.5 6.42857142857143  L 13.5 9.32142857142857  L 16.6153846153846 9.32142857142857  L 16.6153846153846 6.42857142857143  L 13.5 6.42857142857143  Z M 13.7433894230769 4.72600446428572  C 13.8118990384615 4.66238839285714  13.8461538461538 4.58705357142857  13.8461538461538 4.5  L 13.8461538461538 1.60714285714286  C 13.8461538461538 1.52008928571429  13.8118990384615 1.44475446428571  13.7433894230769 1.38113839285714  C 13.6748798076923 1.31752232142857  13.59375 1.28571428571429  13.5 1.28571428571429  L 12.8076923076923 1.28571428571429  C 12.7139423076923 1.28571428571429  12.6328125 1.31752232142857  12.5643028846154 1.38113839285714  C 12.4957932692308 1.44475446428571  12.4615384615385 1.52008928571429  12.4615384615385 1.60714285714286  L 12.4615384615385 4.5  C 12.4615384615385 4.58705357142857  12.4957932692308 4.66238839285714  12.5643028846154 4.72600446428572  C 12.6328125 4.78962053571429  12.7139423076923 4.82142857142857  12.8076923076923 4.82142857142857  L 13.5 4.82142857142857  C 13.59375 4.82142857142857  13.6748798076923 4.78962053571429  13.7433894230769 4.72600446428572  Z M 17.5889423076923 2.953125  C 17.8629807692308 3.20758928571429  18 3.50892857142857  18 3.85714285714286  L 18 16.7142857142857  C 18 17.0625  17.8629807692308 17.3638392857143  17.5889423076923 17.6183035714286  C 17.3149038461538 17.8727678571429  16.9903846153846 18  16.6153846153846 18  L 1.38461538461538 18  C 1.00961538461538 18  0.685096153846154 17.8727678571429  0.411057692307692 17.6183035714286  C 0.137019230769231 17.3638392857143  0 17.0625  0 16.7142857142857  L 0 3.85714285714286  C 0 3.50892857142857  0.137019230769231 3.20758928571429  0.411057692307692 2.953125  C 0.685096153846154 2.69866071428571  1.00961538461538 2.57142857142857  1.38461538461538 2.57142857142857  L 2.76923076923077 2.57142857142857  L 2.76923076923077 1.60714285714286  C 2.76923076923077 1.16517857142857  2.93870192307692 0.786830357142856  3.27764423076923 0.472098214285715  C 3.61658653846154 0.157366071428572  4.02403846153846 0  4.5 0  L 5.19230769230769 0  C 5.66826923076923 0  6.07572115384616 0.157366071428572  6.41466346153846 0.472098214285715  C 6.75360576923077 0.786830357142856  6.92307692307692 1.16517857142857  6.92307692307692 1.60714285714286  L 6.92307692307692 2.57142857142857  L 11.0769230769231 2.57142857142857  L 11.0769230769231 1.60714285714286  C 11.0769230769231 1.16517857142857  11.2463942307692 0.786830357142856  11.5853365384615 0.472098214285715  C 11.9242788461538 0.157366071428572  12.3317307692308 0  12.8076923076923 0  L 13.5 0  C 13.9759615384615 0  14.3834134615385 0.157366071428572  14.7223557692308 0.472098214285715  C 15.0612980769231 0.786830357142856  15.2307692307692 1.16517857142857  15.2307692307692 1.60714285714286  L 15.2307692307692 2.57142857142857  L 16.6153846153846 2.57142857142857  C 16.9903846153846 2.57142857142857  17.3149038461538 2.69866071428571  17.5889423076923 2.953125  Z " fill-rule="nonzero" fill="#000000" stroke="none" fill-opacity="0.247058823529412" transform="matrix(1 0 0 1 473 289 )" />
  </g>
</svg>