<?xml version="1.0" encoding="utf-8"?>
<svg version="1.1" xmlns:xlink="http://www.w3.org/1999/xlink" width="227px" height="156px" xmlns="http://www.w3.org/2000/svg">
  <g transform="matrix(1 0 0 1 -113 -1141 )">
    <path d="M 69.0458333333333 31.6875  C 73.4597222222222 35.4791666666667  75.6666666666667 40.0833333333333  75.6666666666667 45.5  C 75.6666666666667 50.9166666666667  73.4597222222222 55.5208333333333  69.0458333333333 59.3125  C 64.6319444444445 63.1041666666667  59.2722222222222 65  52.9666666666667 65  C 46.6611111111111 65  41.3013888888889 63.1041666666667  36.8875 59.3125  C 32.4736111111111 55.5208333333333  30.2666666666667 50.9166666666667  30.2666666666667 45.5  C 30.2666666666667 40.0833333333333  32.4736111111111 35.4791666666667  36.8875 31.6875  C 41.3013888888889 27.8958333333333  46.6611111111111 26  52.9666666666667 26  C 59.2722222222222 26  64.6319444444445 27.8958333333333  69.0458333333333 31.6875  Z M 147.55 42.25  L 196 84.5  L 196 130  L 31 130  L 31 110.5  L 68.1 78  L 87.0166666666667 94.25  L 147.55 42.25  Z M 210.743489583333 13.96484375  C 209.994704861111 13.3216145833333  209.107986111111 13  208.083333333333 13  L 18.9166666666667 13  C 17.8920138888889 13  17.0052951388889 13.3216145833333  16.2565104166667 13.96484375  C 15.5077256944444 14.6080729166667  15.1333333333333 15.3697916666667  16 16.25  L 16 139.75  C 15.1333333333333 140.630208333333  15.5077256944444 141.391927083333  16.2565104166667 142.03515625  C 17.0052951388889 142.678385416667  17.8920138888889 143  18.9166666666667 143  L 208.083333333333 143  C 209.107986111111 143  209.994704861111 142.678385416667  210.743489583333 142.03515625  C 211.492274305556 141.391927083333  211.866666666667 140.630208333333  211 139.75  L 211 16.25  C 211.866666666667 15.3697916666667  211.492274305556 14.6080729166667  210.743489583333 13.96484375  Z M 221.443229166667 4.77343750000001  C 225.147743055556 7.95572916666666  227 11.78125  227 16.25  L 227 139.75  C 227 144.21875  225.147743055556 148.044270833333  221.443229166667 151.2265625  C 217.738715277778 154.408854166667  213.285416666667 156  208.083333333333 156  L 18.9166666666667 156  C 13.7145833333333 156  9.26128472222222 154.408854166667  5.55677083333333 151.2265625  C 1.85225694444444 148.044270833333  0 144.21875  0 139.75  L 0 16.25  C 0 11.78125  1.85225694444444 7.95572916666666  5.55677083333333 4.77343750000001  C 9.26128472222222 1.59114583333332  13.7145833333333 0  18.9166666666667 0  L 208.083333333333 0  C 213.285416666667 0  217.738715277778 1.59114583333332  221.443229166667 4.77343750000001  Z " fill-rule="nonzero" fill="#aaaaaa" stroke="none" transform="matrix(1 0 0 1 113 1141 )" />
  </g>
</svg>