<?xml version="1.0" encoding="utf-8"?>
<svg version="1.1" xmlns:xlink="http://www.w3.org/1999/xlink" width="7px" height="4px" xmlns="http://www.w3.org/2000/svg">
  <g transform="matrix(1 0 0 1 -532 -14 )">
    <path d="M 0.152733305289942 3.52879785487224  C 0.152733305289942 3.52879785487224  0.521464263751575 3.86198806285113  0.521464263751575 3.86198806285113  C 0.725108743328801 4.04600389011118  1.05528191866952 4.04600381989663  1.25892639824675 3.86198806285113  C 1.25892639824675 3.86198806285113  3.53258406658915 1.80748269239238  3.53258406658915 1.80748269239238  C 3.53258406658915 1.80748269239238  5.74107372608006 3.80310265211057  5.74107372608006 3.80310265211057  C 5.94471801916707 3.98711847937063  6.2748912255895 3.98711885852924  6.47853558083992 3.80310310148374  C 6.47853558083992 3.80310310148374  6.84726650821985 3.46991311819143  6.84726650821985 3.46991311819143  C 7.05091136077749 3.28589736114594  7.05091129861409 2.98754868396574  6.84726650821985 2.80353292692024  C 6.84726650821985 2.80353292692024  3.8974190891804 0.138011768633933  3.8974190891804 0.138011768633933  C 3.69377454743977 -0.0460038760682724  3.36360158967096 -0.0460039322399185  3.15995698576693 0.13801165629064  C 3.15995698576693 0.13801165629064  2.79122605838699 0.471201808097884  2.79122605838699 0.471201808097884  C 2.77295349518973 0.487713122949173  2.75632056556388 0.505144762828143  2.74132724619819 0.523331791983362  C 2.74132724619819 0.523331791983362  0.15273346069845 2.86241766360104  0.15273346069845 2.86241766360104  C -0.0509110810421798 3.04643336447489  -0.0509111742872842 3.34478206974092  0.152733305289942 3.52879785487224  Z " fill-rule="nonzero" fill="#a6aebd" stroke="none" transform="matrix(1 0 0 1 532 14 )" />
  </g>
</svg>